<svg xmlns="http://www.w3.org/2000/svg" xmlns:xlink="http://www.w3.org/1999/xlink" id="Layer_1" x="0" y="0" version="1.1" viewBox="0 0 900 900" style="enable-background:new 0 0 900 900" xml:space="preserve"><style type="text/css">.st0{fill:#9be583}.st1,.st2{fill:none;stroke:#fff;stroke-width:2.5}.st1{stroke-miterlimit:10}.st2{stroke-linejoin:bevel}.st3{fill:#fff}.st4{fill:none;stroke:#fff;stroke-width:2.5;stroke-miterlimit:10;stroke-dasharray:0,0,5,10}</style><g id="b"><g><path d="M722.66,409.37c0,1.61-0.02,3.2-0.07,4.78c-2.15,69.65-52.83,106.2-115.08,81.87 C543.85,471.14,492.2,392,492.13,319.26c-0.04-44.74,19.45-76.63,49.27-88.77c18.66-7.6,41.38-7.46,65.88,2.12 C670.94,257.49,722.59,336.63,722.66,409.37z" class="st0"/><path d="M739.6,407.67c0,1.61-0.02,3.2-0.07,4.78c-2.15,69.65-52.83,106.2-115.08,81.87 c-63.66-24.88-115.31-104.02-115.38-176.76c-0.04-44.74,19.45-76.63,49.27-88.77c18.66-7.6,41.38-7.46,65.88,2.12 C687.88,255.79,739.53,334.93,739.6,407.67L739.6,407.67z" class="st1"/><g><polyline points="564.04 563.73 609.22 590.08 415.33 704.53 190.58 573.52 209.41 561.09" class="st2"/><line x1="459.1" x2="487.99" y1="496.53" y2="513.6" class="st2"/><g><polygon points="564.04 563.73 609.22 590.08 415.33 704.53 190.58 573.52 209.41 561.09 209.03 569.75 301.26 623.96 310.3 620.2 310.68 628.1 416.09 690.6 573.83 596.86 573.45 578.03" class="st3"/><polygon points="487.99 513.6 459.1 496.53 466.53 512.53" class="st3"/></g></g><path d="M310.58,607.21l156.14-94.31c-17.51-57.04-98.26-57.6-98.26-57.6l-159.25,92.05l101.36,59.58l105.32,62.96 l157.93-92.91c-12.97-17.68-51.94-69.09-107.1-64.08" class="st2"/><line x1="416.46" x2="416.46" y1="690.6" y2="669.89" class="st2"/><polyline points="573.45 576.69 573.45 596.2 416.46 690.6 310.68 627.73 310.86 619.82 302.02 624.34 209.22 569.37 209.22 547.35" class="st2"/><path d="M346.06,486.18c0,0,44.42,10.16,59.86,35.01" class="st2"/><path d="M357.73,477.52c0,0,44.42,10.16,59.86,35.01" class="st2"/><path d="M373.92,590.83c0,0,44.42,10.16,59.86,35.01" class="st2"/><path d="M359.99,599.49c0,0,44.42,10.16,59.86,35.01" class="st2"/><path d="M404.42,571.07c0,0,44.42,10.16,59.86,35.01" class="st2"/><path d="M463.15,535.49c0,0,44.42,10.16,59.86,35.01" class="st2"/><path d="M390.49,579.73c0,0,44.42,10.16,59.86,35.01" class="st2"/><path d="M281.69,530.98l51.2-30.12c28.24-0.75,54.96,32,54.96,32l-50.07,30.87 C337.78,563.73,311.94,535.8,281.69,530.98z" class="st3"/><line x1="310.58" x2="310.86" y1="606.93" y2="619.82" class="st2"/><line x1="311.43" x2="373.26" y1="617.37" y2="654.36" class="st2"/><polyline points="382.86 660.29 416.18 680.06 459.95 655.21" class="st2"/><line x1="467.01" x2="526.58" y1="650.97" y2="615.96" class="st2"/><line x1="533.05" x2="573.14" y1="612.16" y2="588.44" class="st2"/><line x1="302.02" x2="302.02" y1="624.34" y2="602.5" class="st2"/><line x1="277.17" x2="209.03" y1="598.74" y2="558.83" class="st2"/><line x1="282.44" x2="301.83" y1="602.13" y2="613.48" class="st2"/><g><g><path d="M244.24,454.14V247.46c-22.31-1.07-25.69-14.91-25.69-14.91" class="st2"/><path d="M265.35,441.6l-21.11,12.55c-23.44-1.07-25.41-15.09-25.41-15.09V232.37l158.4-92.25v24.28" class="st2"/><path d="M382.88,165.82c-16.94-1.13-14.68-12.71-14.68-12.71l-145.69,84.91c0,0,18.92-10.47,21.74,9.45l145.69-85.6 v202.65l-8.86,5.48" class="st2"/></g><path d="M284.89,478.48v-158.9c-17.15-0.82-19.75-11.46-19.75-11.46" class="st2"/><path d="M284.89,319.59l95.73-56.1v158.1l-95.73,56.9c-18.02-0.82-19.54-11.6-19.54-11.6v-158.9l105.5-61.21v18.67" class="st2"/><path d="M375.19,266.52c-13.02-0.87-11.29-9.77-11.29-9.77l-95.29,55.35" class="st2"/></g><circle cx="155.02" cy="405.17" r="7.39" class="st3"/><polyline points="612.4 489.87 612.4 516.31 612.4 548.37 418.44 433.11 418.44 254.03 509.4 308.08" class="st1"/><line x1="418.44" x2="509.37" y1="274.36" y2="328.65" class="st1"/><g><line x1="476.89" x2="505.7" y1="361.21" y2="378.06" class="st1"/><line x1="431.71" x2="443.85" y1="314.91" y2="322.05" class="st1"/><line x1="431.71" x2="443.85" y1="329.03" y2="336.17" class="st1"/><line x1="431.71" x2="443.85" y1="341.58" y2="348.72" class="st1"/><line x1="431.71" x2="443.85" y1="394.53" y2="401.68" class="st1"/><line x1="431.71" x2="443.85" y1="408.65" y2="415.79" class="st1"/><line x1="431.71" x2="443.85" y1="421.2" y2="428.35" class="st1"/><line x1="476.61" x2="521.77" y1="388.4" y2="415.04" class="st1"/><line x1="474.07" x2="519.23" y1="437.53" y2="464.17" class="st1"/><line x1="533.36" x2="578.52" y1="470.57" y2="497.2" class="st1"/><line x1="476.89" x2="505.63" y1="415.51" y2="431.76" class="st1"/><line x1="456.84" x2="456.84" y1="297.9" y2="454.86" class="st1"/></g><g><line x1="607.9" x2="636.71" y1="318.86" y2="335.71" class="st1"/><line x1="562.72" x2="574.86" y1="267.47" y2="274.62" class="st1"/><line x1="562.72" x2="574.86" y1="281.59" y2="288.74" class="st1"/><line x1="562.72" x2="574.86" y1="294.14" y2="301.29" class="st1"/><line x1="562.72" x2="574.86" y1="347.1" y2="354.24" class="st1"/><line x1="562.72" x2="574.86" y1="361.21" y2="368.36" class="st1"/><line x1="562.72" x2="574.86" y1="373.77" y2="380.91" class="st1"/><line x1="610.16" x2="655.32" y1="346.9" y2="373.53" class="st1"/><line x1="667.76" x2="738.74" y1="380.4" y2="422.67" class="st1"/><line x1="607.9" x2="636.64" y1="373.16" y2="389.41" class="st1"/><line x1="717.83" x2="733.6" y1="436.03" y2="444.94" class="st1"/><line x1="649.69" x2="706.36" y1="396.87" y2="429.83" class="st1"/><line x1="607.9" x2="636.71" y1="401.68" y2="418.53" class="st1"/><line x1="610.16" x2="655.32" y1="429.72" y2="456.36" class="st1"/><line x1="667.76" x2="706.84" y1="463.23" y2="486.5" class="st1"/><line x1="607.9" x2="636.64" y1="455.98" y2="472.23" class="st1"/><line x1="649.69" x2="682.3" y1="479.7" y2="498.66" class="st1"/><line x1="587.85" x2="587.85" y1="225.03" y2="472.37" class="st1"/></g><line x1="359.85" x2="311.53" y1="320.75" y2="348.81" class="st2"/><line x1="337.98" x2="311.53" y1="430.01" y2="445.38" class="st2"/><line x1="359.85" x2="311.53" y1="337.69" y2="365.75" class="st2"/><line x1="368.48" x2="272" y1="223.9" y2="279.35" class="st2"/><line x1="274.17" x2="274.17" y1="432.27" y2="458.25" class="st2"/><line x1="274.17" x2="274.17" y1="331.76" y2="411.94" class="st2"/><line x1="230.69" x2="230.69" y1="365.07" y2="391.05" class="st2"/><line x1="230.69" x2="230.69" y1="397.26" y2="436.23" class="st2"/><line x1="230.69" x2="230.69" y1="264.56" y2="344.74" class="st2"/><line x1="241.42" x2="371.3" y1="238.02" y2="160.65" class="st2"/><circle cx="472.64" cy="222.69" r="14.36" class="st3"/><g><line x1="128.05" x2="171.89" y1="514.72" y2="543.7" class="st1"/><line x1="104.33" x2="243.05" y1="449.22" y2="531.84" class="st4"/><line x1="124.27" x2="234.39" y1="539.04" y2="475.23" class="st1"/></g><line x1="463.84" x2="374.62" y1="704.92" y2="758.57" class="st4"/><line x1="361.84" x2="405.68" y1="711.24" y2="740.22" class="st1"/><g><line x1="495.4" x2="411.26" y1="184.65" y2="134.96" class="st4"/><line x1="506.69" x2="388.98" y1="133.83" y2="205.55" class="st1"/></g><g><circle cx="663.95" cy="559.47" r="14.36" class="st3"/><circle cx="695.19" cy="581.42" r="7.39" class="st3"/></g><circle cx="199" cy="653.82" r="14.36" class="st3"/><circle cx="236.27" cy="686.01" r="7.39" class="st3"/><g><g><ellipse cx="605.63" cy="659.38" class="st1" rx="32.94" ry="67.1" transform="matrix(0.0171 -0.9999 0.9999 0.0171 -64.0126 1253.6456)"/><ellipse cx="605.89" cy="658.34" class="st1" rx="24.7" ry="52.96" transform="matrix(0.0171 -0.9999 0.9999 0.0171 -62.7253 1252.8805)"/><path d="M628.02,628.63c-34.93-6.52-73.26,1.98-85.61,18.97s5.96,36.05,40.9,42.57 c34.93,6.52,73.26-1.98,85.61-18.97S662.96,635.15,628.02,628.63z M655.84,667.26c-9.73,12.74-39.98,19.08-67.56,14.17 c-27.58-4.91-42.05-19.22-32.31-31.95c9.73-12.74,39.98-19.08,67.56-14.17C651.11,640.22,665.58,654.53,655.84,667.26z" class="st3"/><path d="M627.29,644.12c17,3.03,25.92,11.85,19.92,19.7" class="st1"/><path d="M587.79,673.84c-19.17-3.41-29.22-13.35-22.46-22.21" class="st1"/><path d="M557.87,694.89c-12.16-6.23-19.18-14.54-19.31-23.13" class="st1"/><path d="M672.54,675.99c-0.47,2.75-1.66,5.5-3.62,8.2c-12.35,16.99-50.68,25.49-85.61,18.97 c-4.7-0.88-9.11-1.98-13.18-3.28" class="st1"/><line x1="538.47" x2="538.47" y1="672.89" y2="655.38" class="st1"/><line x1="672.59" x2="672.59" y1="676.56" y2="660.75" class="st1"/></g><path d="M569.38,700.93l-70.46,43.45c-2.75,1.69-6.22,1.66-8.93-0.08l0,0c-3.4-2.18-3.29-7.19,0.19-9.23l74.5-43.65 c1.11-0.65,2.45-0.78,3.66-0.35l0,0c4.34,1.54,4.97,7.43,1.04,9.85V700.93z" class="st1"/><path d="M490.89,734.71c1.25-0.73,2.76-0.88,4.13-0.39l0,0c4.9,1.74,5.6,8.38,1.18,11.1" class="st1"/></g></g></g></svg>