<svg xmlns="http://www.w3.org/2000/svg" viewBox="0 0 900 900"><defs><style>.c{fill:#fff}.d{fill:#9be583}.e,.f,.g{fill:none;stroke:#fff;stroke-width:2.5px}.e,.g{stroke-miterlimit:10}.f{stroke-linejoin:bevel}.g{stroke-dasharray:0 0 5 10}</style></defs><g id="b"><polygon points="242.14 465.29 198.65 439.57 197.52 540.96 173.24 526.28 213.04 620.31 268.68 583.31 243.26 566.37 242.14 465.29" class="d"/><path d="M428.96,402.04v-87.5c0-43.76-7.53-87.2-22.25-128.41l-10.89-30.47c-3.48-9.73-17.26-9.68-20.66,.08l-10.99,31.51c-14.16,40.6-21.36,83.31-21.29,126.31l.22,87.92" class="f"/><path d="M343.09,471.91v3.55c0,7.35,5.96,13.3,13.3,13.3h59.26c7.07,0,12.85-5.52,13.28-12.48,.02-.27,.03-.55,.03-.82h0v-3.81" class="f"/><path d="M356.86,488.45v.49c0,4.97,4.03,9,9,9h40.09c4.97,0,9-4.03,9-9h0" class="f"/><path d="M356.86,488.45v.49c0,4.97,4.03,9,9,9h40.09c4.97,0,9-4.03,9-9h0l-58.09-.49Z" class="c"/><g><line x1="269.99" x2="316.11" y1="480.54" y2="453.43" class="f"/><polyline points="546.3 509.23 388.79 601.35 270.68 531.46" class="f"/><line x1="387.7" x2="388.79" y1="675.92" y2="601.35" class="f"/><polyline points="460.2 458.36 546.3 509.23 546.3 584.44 387.7 677.89 257.8 602.76" class="f"/></g><polyline points="531.79 593.53 514.3 642.01 428.41 654.59" class="f"/><polygon points="428.41 654.59 514.3 642.01 531.79 593.53 428.41 654.59" class="c"/><polygon points="570.2 689.45 443.64 707.98 395.45 680.84 528.85 664.3 559.51 588.85 597.9 612.68 570.2 689.45" class="f"/><polygon points="644.18 732.93 517.62 751.46 469.43 724.33 602.83 707.78 633.49 632.33 671.88 656.16 644.18 732.93" class="f"/><polygon points="570.2 689.45 443.64 707.98 395.45 680.84 528.85 664.3 559.51 588.85 597.9 612.68 570.2 689.45" class="c"/><polygon points="644.18 732.93 517.62 751.46 469.43 724.33 602.83 707.78 633.49 632.33 671.88 656.16 644.18 732.93" class="c"/><g><g><polyline points="277.9 587.83 251.36 571.08 251.36 470.47 207.69 444.4" class="f"/><line x1="250.89" x2="270.09" y1="470.28" y2="458.51" class="f"/><polyline points="182.28 530.8 207.69 546.04 207.69 444.4 227.88 432.4 270.65 457.38 270.65 558.47 298.04 575.27 222.08 624.83 182.28 530.8 201.1 519.17 207.97 523.17" class="f"/></g><line x1="252.58" x2="271.22" y1="570.23" y2="558.89" class="f"/></g><path d="M347.64,252.43s34.32,41.22,75.54,0" class="f"/><path d="M348.74,242.8s33.32,40.03,73.35,0" class="f"/><path d="M407.27,186.13l-10.89-30.47c-3.48-9.73-17.26-9.68-20.66,.08l-10.99,31.51c-6.34,18.18-11.27,36.77-14.79,55.63,1.63,1.9,34.03,38.64,72.85,.33-3.68-19.37-8.85-38.46-15.51-57.09Z" class="c"/><path d="M348.17,463.35c14.55,10.99,42.65,24.28,75.22-1.12" class="f"/><path d="M348.17,452.88c14.55,10.99,42.65,24.28,75.22-1.12" class="f"/><line x1="182.42" x2="290.42" y1="601.81" y2="666.61" class="f"/><circle cx="384.44" cy="325.81" r="23.72" class="f"/><path d="M407.31,319.6c0,12.18-10.25,22.06-22.89,22.06s-22.89-9.88-22.89-22.06" class="f"/><g><polygon points="675.34 500.42 695 512.16 695 454.54 580.7 386.21 560.88 374.43 560.88 432.05 619.69 467.18 675.34 500.42" class="f"/><line x1="695.15" x2="711.94" y1="455.7" y2="445.51" class="f"/><polyline points="695 512.16 711.94 503.12 711.94 445.51 597.65 377.18 577.82 365.4 560.88 374.43" class="f"/></g><g><path d="M312.04,522.89v-48.34c0-13.08,3.47-25.92,10.07-37.22l26.32-45.08" class="f"/><path d="M306.16,518.97v-47.87c0-13.21,3.54-26.18,10.26-37.55l26.42-44.72,6.12,3.97-.51,71.36-35.98,58.73-6.31-3.92Z" class="f"/></g><g><path d="M459.89,522.89v-48.34c0-13.08-3.47-25.92-10.07-37.22l-26.32-45.08" class="f"/><path d="M465.76,518.97v-47.87c0-13.21-3.54-26.18-10.26-37.55l-26.42-44.72-6.12,3.97,.51,71.36,35.98,58.73,6.31-3.92Z" class="f"/></g><polyline points="648.43 483.36 648.43 515.42 454.46 400.16 454.46 221.08 648.43 336.34 648.43 406.56" class="e"/><line x1="454.46" x2="648.43" y1="241.41" y2="356.66" class="e"/><line x1="384.44" x2="384.44" y1="270.47" y2="302.09" class="f"/><line x1="384.44" x2="384.44" y1="349.52" y2="466.42" class="f"/><g><line x1="512.92" x2="554.78" y1="333.34" y2="357.41" class="e"/><line x1="467.74" x2="479.88" y1="281.96" y2="289.1" class="e"/><line x1="467.74" x2="479.88" y1="296.07" y2="303.22" class="e"/><line x1="467.74" x2="479.88" y1="308.63" y2="315.77" class="e"/><line x1="467.74" x2="479.88" y1="361.58" y2="368.72" class="e"/><line x1="467.74" x2="479.88" y1="375.7" y2="382.84" class="e"/><line x1="467.74" x2="479.88" y1="388.25" y2="395.4" class="e"/><line x1="512.92" x2="620.21" y1="306.32" y2="368.72" class="e"/><line x1="515.18" x2="560.34" y1="361.38" y2="388.02" class="e"/><line x1="512.92" x2="541.66" y1="387.64" y2="403.89" class="e"/><line x1="492.86" x2="492.86" y1="264.95" y2="424.07" class="e"/></g><polyline points="397.52 636.76 397.52 661.24 489.01 608.72" class="e"/><line x1="378.79" x2="378.79" y1="606.18" y2="662.09" class="e"/><line x1="570.52" x2="635.55" y1="415.87" y2="454" class="e"/><line x1="570.89" x2="616.35" y1="398.93" y2="425.38" class="e"/><polyline points="667.15 458.85 650.98 448.79 650.98 474.71 674.61 489.01 674.61 471.28" class="e"/><polyline points="682.6 477.32 682.6 459.1 668.51 450.51" class="e"/><line x1="661.64" x2="682.6" y1="468.04" y2="459.1" class="e"/><polygon points="577.82 365.4 562.89 374.94 696.16 455.12 711.94 445.51 577.82 365.4" class="c"/><circle cx="726.97" cy="373.08" r="14.36" class="c"/><circle cx="702.42" cy="343.85" r="7.39" class="c"/><circle cx="236.81" cy="288.37" r="14.36" class="c"/><circle cx="212.25" cy="259.14" r="7.39" class="c"/><circle cx="423.16" cy="746.91" r="14.36" class="c"/><circle cx="178.37" cy="424.03" r="7.39" class="c"/><circle cx="462.98" cy="182.34" r="7.39" class="c"/><polygon points="422.96 392.8 429.08 388.83 461.62 444.68 464.44 457.38 465.76 518.97 459.46 522.89 460.21 468.4 458.23 457.67 452.02 440.44 422.96 392.8" class="c"/><polygon points="348.4 392.8 342.28 388.83 309.74 444.68 306.92 457.38 305.6 518.97 311.9 522.89 311.16 468.4 313.13 457.67 319.34 440.44 348.4 392.8" class="c"/><polyline points="324.58 547.17 388.96 585.29 518.28 509.34" class="e"/><line x1="816.95" x2="727.73" y1="607.47" y2="661.12" class="g"/><g><line x1="599.08" x2="687.64" y1="577.79" y2="631.19" class="e"/><line x1="575.37" x2="730.55" y1="512.28" y2="605.21" class="g"/><line x1="626.65" x2="736.76" y1="613.12" y2="549.31" class="e"/></g><g><line x1="294.75" x2="187.45" y1="414.47" y2="348.96" class="e"/><line x1="274.12" x2="230.37" y1="348.47" y2="374.94" class="g"/></g><g><line x1="231.04" x2="319.6" y1="727" y2="780.39" class="g"/><line x1="207.33" x2="362.51" y1="661.49" y2="754.42" class="g"/><line x1="258.61" x2="368.72" y1="762.32" y2="698.51" class="e"/></g><polygon points="208.25 522.89 201.48 519.5 182.28 530.8 206.56 545.48 208.25 522.89" class="c"/><polygon points="207.69 446.09 229.15 432.54 270.93 456.25 251.17 469.81 207.69 446.09" class="c"/><polygon points="252.3 570.89 270.93 559.03 297.48 574.84 277.71 587.83 252.3 570.89" class="c"/></g></svg>